 <svg  version="1.0" xmlns="http://www.w3.org/2000/svg"  width="134.000000pt" height="124.000000pt" viewBox="0 0 134.000000 124.000000"  preserveAspectRatio="xMidYMid meet">  <g transform="translate(0.000000,124.000000) scale(0.100000,-0.100000)" fill="#bc592f" stroke="none"> <path d="M307 1196 c-21 -8 -55 -26 -75 -40 -43 -29 -118 -123 -108 -133 4 -4 116 -10 249 -13 225 -5 245 -7 289 -29 58 -28 105 -79 114 -125 14 -77 -54 -194 -138 -237 -43 -22 -46 -19 -18 21 11 16 27 48 35 71 l15 42 -58 -6 c-32 -2 -74 -13 -92 -22 -30 -16 -174 -154 -167 -161 1 -2 102 -4 224 -5 327 -2 433 -23 496 -99 69 -82 61 -253 -18 -372 l-26 -39 42 21 c64 33 136 112 172 188 28 59 32 77 32 152 -1 110 -34 190 -107 255 -56 50 -112 71 -215 81 l-72 7 19 24 c26 33 60 126 60 164 0 95 -55 187 -141 234 l-54 30 -210 2 c-160 2 -219 -1 -248 -11z"/> <path d="M500 230 c-129 -5 -201 -12 -236 -24 -63 -20 -161 -84 -191 -124 l-21 -29 150 -6 c228 -10 659 -8 697 3 19 5 45 20 59 32 23 22 82 127 82 148 0 11 -227 11 -540 0z"/> </g> </svg> 